<svg version="1.1" id="Layer_1" xmlns="http://www.w3.org/2000/svg" xmlns:xlink="http://www.w3.org/1999/xlink" x="0px" y="0px"
	 viewBox="0 0 400 276" style="enable-background:new 0 0 400 276;" xml:space="preserve">
<style type="text/css">
	.st0{fill:#FFFFFF;}
	.st1{fill:url(#SVGID_1_);}
	
		.st2{clip-path:url(#SVGID_00000026858774149355683390000017339068832018523530_);fill:url(#SVGID_00000124158454624858300890000000459721242456010165_);}
	
		.st3{clip-path:url(#SVGID_00000091010442598614780840000012019321005408562593_);fill:url(#SVGID_00000014608131779492343030000007323446818788609199_);}
	
		.st4{clip-path:url(#SVGID_00000078018353128812689860000008189444690205940102_);fill:url(#SVGID_00000171679430972174110380000001727284271085509515_);}
</style>
<g>
	<path class="st0" d="M379,174.1c3.2,3.2,4.8,7.1,4.8,11.7c0,4.6-1.6,8.6-4.8,11.7c-3.2,3.2-7,4.8-11.4,4.8c-4.4,0-8.2-1.6-11.3-4.8
		c-3.2-3.2-4.8-7.1-4.8-11.7c0-4.6,1.6-8.5,4.8-11.7c3.2-3.2,7-4.8,11.3-4.8C372,169.3,375.8,170.9,379,174.1 M367.6,164.8
		c-5.9,0-11,2.1-15.1,6.2c-4.1,4.1-6.2,9.1-6.2,14.8c0,5.8,2.1,10.7,6.2,14.8c4.1,4.1,9.2,6.2,15.1,6.2c6,0,11-2.1,15.2-6.2
		c4.1-4.1,6.2-9.1,6.2-14.8s-2.1-10.7-6.2-14.8C378.6,166.8,373.6,164.8,367.6,164.8 M322.4,165.3l-10.6,15.2v-15.2h-5.2v41h5.2V189
		l2.7-3.8l14.8,21.1h6L317.6,181l10.8-15.7H322.4z M265.7,165.3v41H288v-4.5h-17.2V188H288v-4.5h-17.2v-13.8H288v-4.5h-22.3V165.3z
		 M241.9,180.7c1.8-1.7,2.7-3.8,2.7-6.3c0-2.4-0.9-4.6-2.7-6.4c-1.8-1.8-4-2.7-6.7-2.7h-13v41h14.2c3.4-0.5,6.2-1.8,8.4-4
		c2.8-2.8,4.1-6,4.1-9.7c0-3.8-1.3-7-4-9.6C243.5,181.6,242.5,180.8,241.9,180.7 M235,169.8c1.1,0,2.1,0.4,3,1.3s1.3,2,1.3,3.3
		c0,1.4-0.4,2.5-1.3,3.3c-0.6,0.6-1.5,1-2.6,1.1h-8.3v-9L235,169.8L235,169.8z M227.2,201.9v-18.6h7.5c2.4,0,4.5,0.9,6.2,2.7
		c1.8,1.8,2.7,4,2.7,6.6s-0.9,4.9-2.7,6.6c-1.8,1.8-3.9,2.7-6.2,2.7H227.2z M198.4,165.3l-13.1,17.2l-13.2-17.2h-5.5v41h5.2V173
		l13.5,17.7l13.5-17.7v33.4h5.2v-41L198.4,165.3L198.4,165.3z M126.2,165.3v41h22.3v-4.5h-17.2V188h17.2v-4.5h-17.2v-13.8h17.2v-4.5
		h-22.3V165.3z M109.8,169.8v-4.5H85.1v4.5h9.8v36.5h5.1v-36.5H109.8z M35.2,165.3v41h5.2v-32l22.8,32h5.7v-41h-5.2v32.8l-23.4-32.8
		H35.2z M11.2,206.3h5.2v-41h-5.2V206.3z"/>
	
		<radialGradient id="SVGID_1_" cx="-312.5122" cy="102.369" r="0.9999" gradientTransform="matrix(188.902 0 0 188.902 59234.2773 -19112.5273)" gradientUnits="userSpaceOnUse">
		<stop  offset="0" style="stop-color:#F5AB69"/>
		<stop  offset="0.4335" style="stop-color:#F2A867"/>
		<stop  offset="0.6221" style="stop-color:#E8A062"/>
		<stop  offset="0.7631" style="stop-color:#D89159"/>
		<stop  offset="0.8806" style="stop-color:#C17F4D"/>
		<stop  offset="0.9822" style="stop-color:#A76940"/>
		<stop  offset="1" style="stop-color:#A2643D"/>
	</radialGradient>
	<polyline class="st1" points="11.2,222.7 389,222.7 389,227.7 11.2,227.7 	"/>
	<g>
		<g>
			<defs>
				<path id="SVGID_00000016075981964845075880000008585524824714958729_" d="M183.3,75.1c0-9.2,7.5-16.7,16.7-16.7
					s16.7,7.5,16.7,16.7s-7.5,16.7-16.7,16.7S183.3,84.3,183.3,75.1 M176.6,75.1c0,13,10.5,23.5,23.5,23.5
					c12.9,0,23.5-10.5,23.5-23.5c0-12.9-10.5-23.5-23.5-23.5S176.6,62.2,176.6,75.1"/>
			</defs>
			<clipPath id="SVGID_00000169517478021170361250000007292581727602999714_">
				<use xlink:href="#SVGID_00000016075981964845075880000008585524824714958729_"  style="overflow:visible;"/>
			</clipPath>
			
				<linearGradient id="SVGID_00000075866083106577079120000009386522088900921764_" gradientUnits="userSpaceOnUse" x1="-311.0388" y1="106.0066" x2="-310.0382" y2="106.0066" gradientTransform="matrix(46.9708 0 0 46.9708 14786.3408 -4904.1133)">
				<stop  offset="0" style="stop-color:#A2643D"/>
				<stop  offset="5.493635e-02" style="stop-color:#AA6B42"/>
				<stop  offset="0.2783" style="stop-color:#C98551"/>
				<stop  offset="0.5076" style="stop-color:#E1995E"/>
				<stop  offset="0.7443" style="stop-color:#F0A766"/>
				<stop  offset="1" style="stop-color:#F5AB69"/>
			</linearGradient>
			
				<rect x="176.6" y="51.6" style="clip-path:url(#SVGID_00000169517478021170361250000007292581727602999714_);fill:url(#SVGID_00000075866083106577079120000009386522088900921764_);" width="47" height="47"/>
		</g>
	</g>
	<g>
		<g>
			<defs>
				<path id="SVGID_00000139266456197309625520000006348044665391026076_" d="M180.9,126.3h-32.3v-41L180.9,126.3z M148.7,23.9h32.2
					l-32.2,40V23.9z M141.7,83.1h-31.8V23.9h31.8V83.1z M141.7,126.3h-31.8V89.9h31.8V126.3z M194.9,17.1h-46.5l0,0h-45.3V133h38.7
					h6.5h46.4l-46.1-58.6L194.9,17.1z"/>
			</defs>
			<clipPath id="SVGID_00000070095437939486766170000008582909943701351054_">
				<use xlink:href="#SVGID_00000139266456197309625520000006348044665391026076_"  style="overflow:visible;"/>
			</clipPath>
			
				<linearGradient id="SVGID_00000137813804625972601260000013590871652353770162_" gradientUnits="userSpaceOnUse" x1="-311.9954" y1="103.1868" x2="-310.9959" y2="103.1868" gradientTransform="matrix(91.745 0 0 91.745 28727.2188 -9391.8223)">
				<stop  offset="0" style="stop-color:#A2643D"/>
				<stop  offset="5.493635e-02" style="stop-color:#AA6B42"/>
				<stop  offset="0.2783" style="stop-color:#C98551"/>
				<stop  offset="0.5076" style="stop-color:#E1995E"/>
				<stop  offset="0.7443" style="stop-color:#F0A766"/>
				<stop  offset="1" style="stop-color:#F5AB69"/>
			</linearGradient>
			
				<rect x="103.2" y="17.1" style="clip-path:url(#SVGID_00000070095437939486766170000008582909943701351054_);fill:url(#SVGID_00000137813804625972601260000013590871652353770162_);" width="91.7" height="115.9"/>
		</g>
	</g>
	<g>
		<g>
			<defs>
				<path id="SVGID_00000112601622701677648090000002525713225920990866_" d="M290.3,44.8h-31.8v-21h31.8V44.8z M290.3,126.3h-31.8
					V51.6h31.8V126.3z M251.5,63.9l-32.2-40h32.2V63.9z M251.5,126.3h-32.3l32.3-41V126.3z M251.7,17.1L251.7,17.1h-46.5l46.2,57.4
					l-46.1,58.6h46.4h6.5H297v-116H251.7z"/>
			</defs>
			<clipPath id="SVGID_00000137844340967927783160000003873747235277417089_">
				<use xlink:href="#SVGID_00000112601622701677648090000002525713225920990866_"  style="overflow:visible;"/>
			</clipPath>
			
				<linearGradient id="SVGID_00000139267659138065127580000014323068050872742565_" gradientUnits="userSpaceOnUse" x1="-311.9954" y1="103.1869" x2="-310.9958" y2="103.1869" gradientTransform="matrix(91.7451 0 0 91.7451 28829.3457 -9391.8447)">
				<stop  offset="0" style="stop-color:#A2643D"/>
				<stop  offset="5.493635e-02" style="stop-color:#AA6B42"/>
				<stop  offset="0.2783" style="stop-color:#C98551"/>
				<stop  offset="0.5076" style="stop-color:#E1995E"/>
				<stop  offset="0.7443" style="stop-color:#F0A766"/>
				<stop  offset="1" style="stop-color:#F5AB69"/>
			</linearGradient>
			
				<rect x="205.3" y="17.1" style="clip-path:url(#SVGID_00000137844340967927783160000003873747235277417089_);fill:url(#SVGID_00000139267659138065127580000014323068050872742565_);" width="91.7" height="115.9"/>
		</g>
	</g>
	<path class="st0" d="M386.3,252.1c0.6,0.6,0.8,1.3,0.8,2.1s-0.3,1.6-0.9,2.1c-0.6,0.6-1.2,0.9-2,0.9s-1.4-0.3-2-0.8
		c-0.5-0.5-0.8-1.3-0.9-2.4l-1.8,0.7c0.2,1.1,0.6,2.1,1.3,2.8c0.9,0.9,2.1,1.4,3.4,1.4s2.4-0.5,3.4-1.4c0.9-0.9,1.4-2,1.4-3.2
		s-0.5-2.3-1.4-3.2c-0.8-0.8-1.8-1.4-3-1.8c-0.6-0.3-1.1-0.6-1.5-1c-0.3-0.4-0.5-0.8-0.5-1.3s0.2-0.9,0.5-1.3
		c0.3-0.3,0.7-0.5,1.2-0.5c0.4,0,0.8,0.2,1.2,0.5c0.2,0.2,0.4,0.5,0.6,1.1l1.7-0.7c-0.2-0.7-0.5-1.2-0.9-1.5
		c-0.7-0.7-1.6-1.1-2.6-1.1s-1.8,0.3-2.5,1s-1,1.5-1,2.4s0.3,1.7,1,2.4s1.5,1.2,2.6,1.5C385.1,251.1,385.7,251.6,386.3,252.1
		 M371.6,258.7h2.2l-3.4-5.2c0.5-0.1,1.1-0.5,1.8-1.2c1-1,1.5-2.2,1.5-3.6c0-1.4-0.5-2.5-1.5-3.5c-0.8-0.8-1.9-1.4-3.1-1.5h-4.3v15
		h1.9v-4.9h1.8L371.6,258.7z M368.6,245.4c0.9,0,1.6,0.3,2.3,1c0.7,0.6,1,1.5,1,2.4c0,1-0.3,1.8-1,2.4c-0.7,0.6-1.4,1-2.3,1h-1.9
		v-6.8L368.6,245.4L368.6,245.4z M354.9,246.9c1.2,1.2,1.8,2.6,1.8,4.3s-0.6,3.1-1.8,4.3c-1.2,1.2-2.6,1.8-4.2,1.8
		c-1.6,0-3-0.6-4.1-1.8c-1.2-1.2-1.8-2.6-1.8-4.3s0.6-3.1,1.8-4.3s2.5-1.8,4.1-1.8C352.3,245.2,353.7,245.7,354.9,246.9
		 M350.7,243.5c-2.2,0-4,0.8-5.5,2.3s-2.3,3.3-2.3,5.4c0,2.1,0.8,3.9,2.3,5.4c1.5,1.5,3.4,2.3,5.5,2.3c2.2,0,4-0.8,5.5-2.3
		c1.5-1.5,2.3-3.3,2.3-5.4c0-2.1-0.8-3.9-2.3-5.4C354.7,244.3,352.9,243.5,350.7,243.5 M338.2,245.3v-1.6h-9v1.6h3.6v13.4h1.9v-13.4
		L338.2,245.3L338.2,245.3z M318,243.7l-5.5,15h2l2.3-6.2h4.1l2.3,6.2h2l-5.4-15L318,243.7L318,243.7z M317.4,250.8l1.4-4l1.4,4
		H317.4z M305.2,258.7h2.2l-3.4-5.2c0.5-0.1,1.1-0.5,1.8-1.2c1-1,1.5-2.2,1.5-3.6c0-1.4-0.5-2.5-1.5-3.5c-0.8-0.8-1.9-1.4-3.1-1.5
		h-4.3v15h1.9v-4.9h1.8L305.2,258.7z M302.1,245.4c0.9,0,1.6,0.3,2.3,1c0.7,0.6,1,1.5,1,2.4c0,1-0.3,1.8-1,2.4c-0.7,0.6-1.4,1-2.3,1
		h-1.9v-6.8L302.1,245.4L302.1,245.4z M292.4,245.3v-1.6h-9v1.6h3.6v13.4h1.9v-13.4L292.4,245.3L292.4,245.3z M275.3,252.1
		c0.6,0.6,0.8,1.3,0.8,2.1s-0.3,1.6-0.9,2.1c-0.6,0.6-1.2,0.9-2,0.9s-1.4-0.3-2-0.8c-0.5-0.5-0.8-1.3-0.9-2.4l-1.8,0.7
		c0.2,1.1,0.6,2.1,1.3,2.8c0.9,0.9,2.1,1.4,3.4,1.4s2.4-0.5,3.4-1.4c0.9-0.9,1.4-2,1.4-3.2s-0.5-2.3-1.4-3.2c-0.8-0.8-1.8-1.4-3-1.8
		c-0.6-0.3-1.1-0.6-1.5-1c-0.3-0.4-0.5-0.8-0.5-1.3s0.2-0.9,0.5-1.3c0.3-0.3,0.7-0.5,1.2-0.5c0.4,0,0.8,0.2,1.2,0.5
		c0.2,0.2,0.4,0.5,0.6,1.1l1.7-0.7c-0.2-0.7-0.5-1.2-0.9-1.5c-0.7-0.7-1.6-1.1-2.6-1.1s-1.8,0.3-2.5,1s-1,1.5-1,2.4s0.3,1.7,1,2.4
		s1.5,1.2,2.6,1.5C274.1,251.1,274.7,251.6,275.3,252.1 M260.3,258.7h1.9v-15h-1.9V258.7z M241.2,243.7v15h1.9V247l8.3,11.7h2.1v-15
		h-1.9v12l-8.5-12L241.2,243.7L241.2,243.7z M232.4,258.7h1.9v-15h-1.9V258.7z M223.7,243.7l-4.8,6.3l-4.8-6.3h-2v15h1.9v-12.2
		l4.9,6.5l4.9-6.5v12.2h1.9v-15L223.7,243.7L223.7,243.7z M197.9,245.4c1.9,0,3.3,0.5,4.4,1.5c1.2,1.2,1.8,2.6,1.8,4.3
		s-0.6,3.1-1.8,4.3c-1.1,1-2.5,1.5-4.4,1.5h-1.3v-11.7L197.9,245.4L197.9,245.4z M194.7,243.7v15h3.2c2.5,0,4.4-0.7,5.8-2.1
		c1.5-1.5,2.3-3.3,2.3-5.4c0-2.1-0.7-3.9-2.2-5.4c-1.4-1.4-3.3-2.1-5.8-2.1L194.7,243.7L194.7,243.7z M182,243.7l-5.5,15h2l2.3-6.2
		h4.1l2.3,6.2h2l-5.4-15L182,243.7L182,243.7z M181.3,250.8l1.4-4l1.4,4H181.3z M161.9,245.3v-1.6h-9v1.6h3.6v13.4h1.9v-13.4
		L161.9,245.3L161.9,245.3z M134.6,243.7v15h1.9V247l8.3,11.7h2.1v-15H145v12l-8.5-12L134.6,243.7L134.6,243.7z M119.7,243.7v15h8.2
		v-1.6h-6.3v-5h6.3v-1.6h-6.3v-5h6.3v-1.6h-8.2V243.7z M111.1,243.7l-4.8,6.3l-4.8-6.3h-2v15h1.9v-12.2l4.9,6.5l4.9-6.5v12.2h1.9
		v-15L111.1,243.7L111.1,243.7z M93.6,245.3v-1.6h-9v1.6h3.6v13.4h1.9v-13.4L93.6,245.3L93.6,245.3z M76.5,252.1
		c0.6,0.6,0.8,1.3,0.8,2.1s-0.3,1.6-0.9,2.1c-0.6,0.6-1.2,0.9-2,0.9s-1.4-0.3-2-0.8c-0.5-0.5-0.8-1.3-0.9-2.4l-1.8,0.7
		c0.2,1.1,0.6,2.1,1.3,2.8c0.9,0.9,2.1,1.4,3.4,1.4s2.4-0.5,3.4-1.4c0.9-0.9,1.4-2,1.4-3.2s-0.5-2.3-1.4-3.2c-0.8-0.8-1.8-1.4-3-1.8
		c-0.6-0.3-1.1-0.6-1.5-1c-0.3-0.4-0.5-0.8-0.5-1.3s0.2-0.9,0.5-1.3c0.3-0.3,0.7-0.5,1.2-0.5c0.4,0,0.8,0.2,1.2,0.5
		c0.2,0.2,0.4,0.5,0.6,1.1l1.7-0.7c-0.2-0.7-0.5-1.2-0.9-1.5c-0.7-0.7-1.6-1.1-2.6-1.1s-1.8,0.3-2.5,1s-1,1.5-1,2.4s0.3,1.7,1,2.4
		s1.5,1.2,2.6,1.5C75.3,251.1,76,251.6,76.5,252.1 M55.4,243.7v15h8.2v-1.6h-6.3v-5h6.3v-1.6h-6.3v-5h6.3v-1.6h-8.2V243.7z
		 M43.7,255.3l-4.1-11.5h-2l5.4,15h1.3l5.4-15h-2L43.7,255.3z M19.8,243.7v15h1.9V247l8.3,11.7h2.1v-15h-1.9v12l-8.5-12L19.8,243.7
		L19.8,243.7z M11,258.7h1.9v-15H11V258.7z"/>
</g>
</svg>
